<svg width="80" height="80" viewBox="0 0 80 80" fill="none" xmlns="http://www.w3.org/2000/svg">
<rect width="80" height="80" rx="8" fill="#1E1E1E"/>
<path d="M34.9625 49.16C35.0905 49.672 35.1545 50.312 35.1545 51.08C35.1545 51.816 35.0905 52.456 34.9625 53H25.3625C25.2345 52.456 25.1705 51.816 25.1705 51.08C25.1705 50.312 25.2345 49.672 25.3625 49.16H28.2425C28.1145 48.616 28.0505 47.976 28.0505 47.24C28.0505 46.472 28.1145 45.832 28.2425 45.32C28.1145 44.776 28.0505 44.136 28.0505 43.4C28.0505 42.632 28.1145 41.992 28.2425 41.48C28.1145 40.936 28.0505 40.296 28.0505 39.56C28.0505 38.792 28.1145 38.152 28.2425 37.64C28.1145 37.096 28.0505 36.456 28.0505 35.72C28.0505 34.952 28.1145 34.312 28.2425 33.8C28.1145 33.256 28.0505 32.616 28.0505 31.88C28.0505 31.112 28.1145 30.472 28.2425 29.96H25.3625C25.2345 29.416 25.1705 28.776 25.1705 28.04C25.1705 27.272 25.2345 26.632 25.3625 26.12H34.9625C35.0905 26.632 35.1545 27.272 35.1545 28.04C35.1545 28.776 35.0905 29.416 34.9625 29.96H32.0825C32.2105 30.472 32.2745 31.112 32.2745 31.88C32.2745 32.616 32.2105 33.256 32.0825 33.8C32.2105 34.312 32.2745 34.952 32.2745 35.72C32.2745 36.456 32.2105 37.096 32.0825 37.64C32.2105 38.152 32.2745 38.792 32.2745 39.56C32.2745 40.296 32.2105 40.936 32.0825 41.48C32.2105 41.992 32.2745 42.632 32.2745 43.4C32.2745 44.136 32.2105 44.776 32.0825 45.32C32.2105 45.832 32.2745 46.472 32.2745 47.24C32.2745 47.976 32.2105 48.616 32.0825 49.16H34.9625ZM57.0613 49.16C57.1893 49.672 57.2533 50.312 57.2533 51.08C57.2533 51.816 57.1893 52.456 57.0613 53H53.2213C53.0933 52.456 53.0293 51.816 53.0293 51.08C53.0293 50.312 53.0933 49.672 53.2213 49.16H51.7812C51.6533 48.616 51.5893 47.976 51.5893 47.24C51.5893 46.472 51.6533 45.832 51.7812 45.32H50.3413C50.2133 44.776 50.1493 44.136 50.1493 43.4C50.1493 42.632 50.2133 41.992 50.3413 41.48H45.5413C45.6693 41.992 45.7333 42.632 45.7333 43.4C45.7333 44.136 45.6693 44.776 45.5413 45.32C45.6693 45.832 45.7333 46.472 45.7333 47.24C45.7333 47.976 45.6693 48.616 45.5413 49.16C45.6693 49.672 45.7333 50.312 45.7333 51.08C45.7333 51.816 45.6693 52.456 45.5413 53H41.7013C41.5733 52.456 41.5093 51.816 41.5093 51.08C41.5093 50.312 41.5733 49.672 41.7013 49.16C41.5733 48.616 41.5093 47.976 41.5093 47.24C41.5093 46.472 41.5733 45.832 41.7013 45.32C41.5733 44.776 41.5093 44.136 41.5093 43.4C41.5093 42.632 41.5733 41.992 41.7013 41.48C41.5733 40.936 41.5093 40.296 41.5093 39.56C41.5093 38.792 41.5733 38.152 41.7013 37.64C41.5733 37.096 41.5093 36.456 41.5093 35.72C41.5093 34.952 41.5733 34.312 41.7013 33.8C41.5733 33.256 41.5093 32.616 41.5093 31.88C41.5093 31.112 41.5733 30.472 41.7013 29.96C41.5733 29.416 41.5093 28.776 41.5093 28.04C41.5093 27.272 41.5733 26.632 41.7013 26.12H55.1413C55.2693 26.632 55.3333 27.272 55.3333 28.04C55.3333 28.776 55.2693 29.416 55.1413 29.96H57.0613C57.1893 30.472 57.2533 31.112 57.2533 31.88C57.2533 32.616 57.1893 33.256 57.0613 33.8H56.1013C56.2293 34.312 56.2933 34.952 56.2933 35.72C56.2933 36.456 56.2293 37.096 56.1013 37.64H53.2213C53.3493 38.152 53.4133 38.792 53.4133 39.56C53.4133 40.296 53.3493 40.936 53.2213 41.48H54.1813C54.3093 41.992 54.3733 42.632 54.3733 43.4C54.3733 44.136 54.3093 44.776 54.1813 45.32H55.6213C55.7493 45.832 55.8133 46.472 55.8133 47.24C55.8133 47.976 55.7493 48.616 55.6213 49.16H57.0613ZM52.2613 37.64C52.1333 37.096 52.0693 36.456 52.0693 35.72C52.0693 34.952 52.1333 34.312 52.2613 33.8C52.1333 33.256 52.0693 32.616 52.0693 31.88C52.0693 31.112 52.1333 30.472 52.2613 29.96H45.5413C45.6693 30.472 45.7333 31.112 45.7333 31.88C45.7333 32.616 45.6693 33.256 45.5413 33.8C45.6693 34.312 45.7333 34.952 45.7333 35.72C45.7333 36.456 45.6693 37.096 45.5413 37.64H52.2613Z" fill="white"/>
</svg>
